<svg version="1.1" xmlns="http://www.w3.org/2000/svg" viewBox="0 0 3627.7652938562646 1268.6393860985156" width="3627.7652938562646" height="1268.6393860985156" filter="invert(93%) hue-rotate(180deg)">
  <!-- svg-source:excalidraw -->
  
  <defs>
    <style class="style-fonts">
      @font-face {
        font-family: "Virgil";
        src: url("https://excalidraw.com/Virgil.woff2");
      }
      @font-face {
        font-family: "Cascadia";
        src: url("https://excalidraw.com/Cascadia.woff2");
      }
    </style>
  </defs>
  <rect x="0" y="0" width="3627.7652938562646" height="1268.6393860985156" fill="#ffffff"></rect><g transform="translate(1210.5675474413829 531.590957960453) rotate(0 27 26)"><text x="0" y="18" font-family="Virgil, Segoe UI Emoji" font-size="20px" fill="#000000" text-anchor="start" style="white-space: pre;" direction="ltr">Verify</text><text x="0" y="44" font-family="Virgil, Segoe UI Emoji" font-size="20px" fill="#000000" text-anchor="start" style="white-space: pre;" direction="ltr"></text></g><g stroke-linecap="round" transform="translate(1198.5675474413829 521.590957960453) rotate(0 38 22.5)"><path d="M11.25 0 M11.25 0 C24.37 0.94, 37.94 0.94, 64.75 0 M11.25 0 C23.12 -1.4, 35.83 -1.07, 64.75 0 M64.75 0 C73.55 -1.87, 74.92 2.5, 76 11.25 M64.75 0 C74.49 0.82, 75.44 5.87, 76 11.25 M76 11.25 C75.06 19.15, 74.75 24.89, 76 33.75 M76 11.25 C75.45 16.39, 76.53 21.55, 76 33.75 M76 33.75 C77.4 39.85, 71.56 46.13, 64.75 45 M76 33.75 C75.77 39.46, 72.17 43.67, 64.75 45 M64.75 45 C54.7 45.57, 44.47 46.43, 11.25 45 M64.75 45 C46.11 45.76, 27.94 44.52, 11.25 45 M11.25 45 C4.56 43.65, -0.66 40.09, 0 33.75 M11.25 45 C3.56 45.58, -0.15 39.91, 0 33.75 M0 33.75 C-0.63 24.62, -0.88 16.87, 0 11.25 M0 33.75 C-0.76 27.56, -0.74 19.34, 0 11.25 M0 11.25 C-1.38 3.58, 3.32 1.11, 11.25 0 M0 11.25 C0.34 2.14, 5.43 0.96, 11.25 0" stroke="#000000" stroke-width="1" fill="none"></path></g><g transform="translate(1088.5675474413829 645.2336493757662) rotate(0 366 78.00000000000003)"><text x="0" y="18" font-family="Virgil, Segoe UI Emoji" font-size="20.274852757451338px" fill="#000000" text-anchor="start" style="white-space: pre;" direction="ltr">The verify function uses mathematical eliptical curve functions</text><text x="0" y="44" font-family="Virgil, Segoe UI Emoji" font-size="20.274852757451338px" fill="#000000" text-anchor="start" style="white-space: pre;" direction="ltr">to verify whether the message matches the signature and from address.</text><text x="0" y="70" font-family="Virgil, Segoe UI Emoji" font-size="20.274852757451338px" fill="#000000" text-anchor="start" style="white-space: pre;" direction="ltr"></text><text x="0" y="96" font-family="Virgil, Segoe UI Emoji" font-size="20.274852757451338px" fill="#000000" text-anchor="start" style="white-space: pre;" direction="ltr">the verify function has to:</text><text x="0" y="122" font-family="Virgil, Segoe UI Emoji" font-size="20.274852757451338px" fill="#000000" text-anchor="start" style="white-space: pre;" direction="ltr"> use the public key, signature and message(the transaction)</text><text x="0" y="148" font-family="Virgil, Segoe UI Emoji" font-size="20.274852757451338px" fill="#000000" text-anchor="start" style="white-space: pre;" direction="ltr"> and verify if the message is true by checking the database.</text></g><g stroke-linecap="round" transform="translate(1070.0441425011581 638.879568562753) rotate(0 377.0398034965251 85.00976464021255)"><path d="M32 0 M32 0 C281 3.33, 531.01 2.21, 722.08 0 M32 0 C231.52 1.48, 430.67 2.1, 722.08 0 M722.08 0 C743.26 1.52, 753.11 11.42, 754.08 32 M722.08 0 C742.52 0.43, 755 11.35, 754.08 32 M754.08 32 C753.55 58.18, 755.01 85.06, 754.08 138.02 M754.08 32 C755.69 59.39, 754.54 86.32, 754.08 138.02 M754.08 138.02 C753 160.62, 743.38 169.95, 722.08 170.02 M754.08 138.02 C754.67 157.39, 745.68 168.87, 722.08 170.02 M722.08 170.02 C507.69 167.8, 293.73 167.95, 32 170.02 M722.08 170.02 C566.39 168.04, 410.53 167.58, 32 170.02 M32 170.02 C10.28 168.27, -1.97 158.67, 0 138.02 M32 170.02 C8.8 172.27, 1.88 161.24, 0 138.02 M0 138.02 C-0.79 102.61, -0.93 63.61, 0 32 M0 138.02 C-1.97 101.53, -1.11 66.01, 0 32 M0 32 C-1 10.21, 11.03 -1.93, 32 0 M0 32 C0.21 10, 10.18 0.37, 32 0" stroke="#000000" stroke-width="1" fill="none"></path></g><g stroke-linecap="round"><g transform="translate(1247.711236761771 571.590957960453) rotate(0 32.51918196634409 26.910868447646322)"><path d="M-0.87 -0.59 C3.11 3.92, 12.98 17.28, 24.11 26.45 C35.24 35.61, 59.13 49.82, 65.91 54.41 M0.87 1.72 C4.7 6.44, 12.58 19.25, 23.29 27.69 C34 36.14, 58.28 47.82, 65.14 52.4" stroke="#000000" stroke-width="1" fill="none"></path></g><g transform="translate(1247.711236761771 571.590957960453) rotate(0 32.51918196634409 26.910868447646322)"><path d="M39.6 48.55 C47.44 49.64, 57.25 49.1, 65.49 50.82 M40.68 47.48 C48.15 50.52, 56.51 51.62, 64.97 51.79" stroke="#000000" stroke-width="1" fill="none"></path></g><g transform="translate(1247.711236761771 571.590957960453) rotate(0 32.51918196634409 26.910868447646322)"><path d="M48.09 33.76 C53.15 39.49, 60.26 43.66, 65.49 50.82 M49.17 32.69 C53.89 40.68, 59.4 46.76, 64.97 51.79" stroke="#000000" stroke-width="1" fill="none"></path></g></g><mask></mask><g transform="translate(2044.5083336810535 485.7876417599997) rotate(0 69.96529570217876 14.910636788988938)"><text x="0" y="20.821273577977855" font-family="Virgil, Segoe UI Emoji" font-size="22.939441213829113px" fill="#000000" text-anchor="start" style="white-space: pre;" direction="ltr">Create user</text></g><g stroke-linecap="round" transform="translate(2037.9542076199596 479.72507515348764) rotate(0 75.37244970258132 22.120175456192385)"><path d="M11.06 0 M11.06 0 C52.58 -0.15, 91.23 1.06, 139.68 0 M11.06 0 C52.2 0.7, 93.07 -0.12, 139.68 0 M139.68 0 C145.49 -1.28, 152.06 2.1, 150.74 11.06 M139.68 0 C147.97 0.24, 151.44 2.03, 150.74 11.06 M150.74 11.06 C149 16.26, 151.81 22.07, 150.74 33.18 M150.74 11.06 C150.34 16.83, 150.11 23.18, 150.74 33.18 M150.74 33.18 C151.09 38.97, 146.47 44.68, 139.68 44.24 M150.74 33.18 C149.3 41.31, 148.9 43.24, 139.68 44.24 M139.68 44.24 C93.06 46.71, 45.94 45.92, 11.06 44.24 M139.68 44.24 C88.62 45, 38.55 44.04, 11.06 44.24 M11.06 44.24 C3.89 42.29, 0.05 41.07, 0 33.18 M11.06 44.24 C2.24 45.86, 1.74 39.29, 0 33.18 M0 33.18 C-1.47 25.15, 0.58 18.55, 0 11.06 M0 33.18 C0.82 27.58, 0.12 21.51, 0 11.06 M0 11.06 C-0.56 3.47, 4.55 -1.05, 11.06 0 M0 11.06 C-0.61 4.91, 2.39 1.14, 11.06 0" stroke="#000000" stroke-width="1" fill="none"></path></g><g transform="translate(1896.2410508909134 672.9127576843055) rotate(0 360.1492270571172 44.73191036696676)"><text x="0" y="20.821273577977852" font-family="Virgil, Segoe UI Emoji" font-size="22.18624546755696px" fill="#000000" text-anchor="start" style="white-space: pre;" direction="ltr">The create user function:</text><text x="0" y="50.642547155955704" font-family="Virgil, Segoe UI Emoji" font-size="22.18624546755696px" fill="#000000" text-anchor="start" style="white-space: pre;" direction="ltr"> takes in a public key from the keys or user and records it into </text><text x="0" y="80.46382073393356" font-family="Virgil, Segoe UI Emoji" font-size="22.18624546755696px" fill="#000000" text-anchor="start" style="white-space: pre;" direction="ltr"> the database and sets the balance property to zero.</text></g><g stroke-linecap="round" transform="translate(1884.2837251511892 667.7465665311228) rotate(0 364.6840927706087 53.06718614475483)"><path d="M26.53 0 M26.53 0 C201.32 -0.92, 376.67 -0.71, 702.83 0 M26.53 0 C231.43 -2.07, 435.84 -1.79, 702.83 0 M702.83 0 C720.77 -0.4, 728.84 9.35, 729.37 26.53 M702.83 0 C721.51 1.32, 729.47 9.51, 729.37 26.53 M729.37 26.53 C730.22 48.11, 728.71 67.83, 729.37 79.6 M729.37 26.53 C730.18 45.94, 729.63 64.53, 729.37 79.6 M729.37 79.6 C727.9 97.32, 719.6 106.08, 702.83 106.13 M729.37 79.6 C728.18 98.38, 721.64 105.5, 702.83 106.13 M702.83 106.13 C550.47 104.24, 398.28 104.72, 26.53 106.13 M702.83 106.13 C432.84 104.69, 162.52 104.68, 26.53 106.13 M26.53 106.13 C9.36 107.74, -1.13 98.72, 0 79.6 M26.53 106.13 C6.96 106.78, 1.61 98.65, 0 79.6 M0 79.6 C0.36 61.09, 0.98 43.27, 0 26.53 M0 79.6 C0.52 60.08, -0.56 39.08, 0 26.53 M0 26.53 C1.82 10.62, 6.95 1.94, 26.53 0 M0 26.53 C-2.17 8.06, 7.07 0.32, 26.53 0" stroke="#000000" stroke-width="1" fill="none"></path></g><g stroke-linecap="round"><g transform="translate(2102.859038593021 530.2686636491434) rotate(0 45.93244819353026 62.31618839936942)"><path d="M1.15 -0.73 C15.63 8.07, 73.81 30.97, 85.99 51.99 C98.17 73.01, 76.09 113.34, 74.24 125.37 M0.3 1.5 C15.23 10.54, 76.11 33.01, 88.26 53.3 C100.4 73.59, 75.36 111.32, 73.18 123.24" stroke="#000000" stroke-width="1" fill="none"></path></g><g transform="translate(2102.859038593021 530.2686636491434) rotate(0 45.93244819353026 62.31618839936942)"><path d="M72.74 91.83 C72.84 99.17, 74.08 107.08, 71.82 125.09 M73.97 94.09 C72.76 102.73, 74.16 111.11, 73.26 122.67" stroke="#000000" stroke-width="1" fill="none"></path></g><g transform="translate(2102.859038593021 530.2686636491434) rotate(0 45.93244819353026 62.31618839936942)"><path d="M91.84 99.36 C87.64 105.16, 84.52 111.36, 71.82 125.09 M93.06 101.62 C86.45 108.04, 82.41 114.27, 73.26 122.67" stroke="#000000" stroke-width="1" fill="none"></path></g></g><mask></mask><g transform="translate(2280.331240393459 330.84604585269733) rotate(0 21.218983122791883 12.043206637260283)"><text x="0" y="17.086413274520574" font-family="Virgil, Segoe UI Emoji" font-size="18.351552971063295px" fill="#000000" text-anchor="start" style="white-space: pre;" direction="ltr">Keys</text></g><g stroke-linecap="round" transform="translate(2268.8615197865447 324.70155267042173) rotate(0 31.132098790196665 19.6623781832821)"><path d="M9.83 0 M9.83 0 C23.71 -1.51, 32.87 -0.54, 52.43 0 M9.83 0 C22.41 -0.01, 32.96 -0.3, 52.43 0 M52.43 0 C57.67 0.74, 61.94 3.77, 62.26 9.83 M52.43 0 C60.33 -1.4, 62.53 4.67, 62.26 9.83 M62.26 9.83 C62.04 15.64, 61.17 20.12, 62.26 29.49 M62.26 9.83 C62.53 16.49, 61.8 22.08, 62.26 29.49 M62.26 29.49 C62.78 36.43, 58.4 38.1, 52.43 39.32 M62.26 29.49 C64.29 35.31, 58.41 39.24, 52.43 39.32 M52.43 39.32 C39.26 36.94, 21.57 39.86, 9.83 39.32 M52.43 39.32 C40.5 39.51, 30.1 39, 9.83 39.32 M9.83 39.32 C3.18 38.77, -1.12 38.01, 0 29.49 M9.83 39.32 C3.61 38.52, 1.63 33.77, 0 29.49 M0 29.49 C-0.38 23.51, -1.71 13.75, 0 9.83 M0 29.49 C-0.49 25.63, 0.79 20.54, 0 9.83 M0 9.83 C1.63 4.34, 2.74 0.92, 9.83 0 M0 9.83 C-0.49 4.9, 4.46 0.48, 9.83 0" stroke="#000000" stroke-width="1" fill="none"></path></g><g stroke-linecap="round" transform="translate(2248.3502347347257 421.5985988059376) rotate(0 215.46689425846637 41.78255363947446)"><path d="M20.89 0 M20.89 0 C154.95 0.94, 289.99 0.3, 410.04 0 M20.89 0 C113.66 0.71, 206.97 0.82, 410.04 0 M410.04 0 C422.14 1.39, 428.94 5.23, 430.93 20.89 M410.04 0 C425.04 -0.91, 430.39 5.57, 430.93 20.89 M430.93 20.89 C430.98 29.81, 430.56 37.8, 430.93 62.67 M430.93 20.89 C431.7 36.53, 431.55 53.34, 430.93 62.67 M430.93 62.67 C432.65 76.05, 425 81.67, 410.04 83.57 M430.93 62.67 C428.87 74.45, 425.97 85.06, 410.04 83.57 M410.04 83.57 C304.97 86.75, 202.5 85.49, 20.89 83.57 M410.04 83.57 C275.68 85.29, 140.64 84.94, 20.89 83.57 M20.89 83.57 C7.44 85.08, -1.29 75.24, 0 62.67 M20.89 83.57 C7.71 84.06, 1.27 77.09, 0 62.67 M0 62.67 C-0.06 51.07, 2.11 38.69, 0 20.89 M0 62.67 C0.81 49.78, 1 37.03, 0 20.89 M0 20.89 C-1.69 8.09, 7.5 0.17, 20.89 0 M0 20.89 C0.17 8.51, 5.51 0.57, 20.89 0" stroke="#000000" stroke-width="1" fill="none"></path></g><g transform="translate(2272.138582817092 427.5194052538343) rotate(0 196.1322223782389 36.129619911780864)"><text x="0" y="17.086413274520577" font-family="Virgil, Segoe UI Emoji" font-size="18.351552971063295px" fill="#000000" text-anchor="start" style="white-space: pre;" direction="ltr">The keys function generates a private and</text><text x="0" y="41.172826549041154" font-family="Virgil, Segoe UI Emoji" font-size="18.351552971063295px" fill="#000000" text-anchor="start" style="white-space: pre;" direction="ltr">public key which can be used by the server</text><text x="0" y="65.25923982356173" font-family="Virgil, Segoe UI Emoji" font-size="18.351552971063295px" fill="#000000" text-anchor="start" style="white-space: pre;" direction="ltr">and or client.</text></g><g stroke-linecap="round"><g transform="translate(2344.744338832178 345.80565994024164) rotate(0 30.08339599225667 35.790366884451686)"><path d="M0.25 -0.64 C7.53 4.69, 32.73 20.76, 42.89 32.73 C53.06 44.71, 58.16 64.85, 61.24 71.23 M-1.08 1.64 C6.13 7.01, 31.71 21.9, 42.05 33.66 C52.39 45.43, 58.21 65.89, 60.96 72.22" stroke="#000000" stroke-width="1" fill="none"></path></g><g transform="translate(2344.744338832178 345.80565994024164) rotate(0 30.08339599225667 35.790366884451686)"><path d="M46.28 56.65 C48.7 61.55, 52.78 65.53, 59.52 70.73 M48.09 56.83 C49.48 60.46, 53.81 64.28, 60.6 72.51" stroke="#000000" stroke-width="1" fill="none"></path></g><g transform="translate(2344.744338832178 345.80565994024164) rotate(0 30.08339599225667 35.790366884451686)"><path d="M59.68 51.62 C59 57.72, 59.94 62.88, 59.52 70.73 M61.49 51.79 C59.96 56.41, 61.37 61.33, 60.6 72.51" stroke="#000000" stroke-width="1" fill="none"></path></g></g><mask></mask><g transform="translate(1035.1108175502077 277.0945148576169) rotate(0 47.5 21)"><text x="0" y="15" font-family="Virgil, Segoe UI Emoji" font-size="16px" fill="#000000" text-anchor="start" style="white-space: pre;" direction="ltr">Transaction</text><text x="0" y="36" font-family="Virgil, Segoe UI Emoji" font-size="16px" fill="#000000" text-anchor="start" style="white-space: pre;" direction="ltr"></text></g><g stroke-linecap="round" transform="translate(1024.1667438419356 272.45747385702464) rotate(0 54.95657754723126 15.65966994625407)"><path d="M7.83 0 M7.83 0 C32.63 -0.76, 53.31 -2.14, 102.08 0 M7.83 0 C37.42 -0.68, 66.14 -0.86, 102.08 0 M102.08 0 C109.09 -0.15, 108.75 2.86, 109.91 7.83 M102.08 0 C106.22 -2.03, 109.05 4.67, 109.91 7.83 M109.91 7.83 C111.33 14.8, 111.4 19.4, 109.91 23.49 M109.91 7.83 C109.85 12.71, 109.31 19.27, 109.91 23.49 M109.91 23.49 C109.62 26.96, 105.86 30.82, 102.08 31.32 M109.91 23.49 C109.98 29.58, 106.03 33.08, 102.08 31.32 M102.08 31.32 C77.45 31.36, 57.94 32.29, 7.83 31.32 M102.08 31.32 C67.34 31.13, 34 30.43, 7.83 31.32 M7.83 31.32 C3.13 32.48, -0.48 26.81, 0 23.49 M7.83 31.32 C0.52 31.76, -0.4 30.41, 0 23.49 M0 23.49 C1.04 16.09, 1.41 11.25, 0 7.83 M0 23.49 C-0.28 19.61, -0.09 15.67, 0 7.83 M0 7.83 C1.75 1.36, 1.77 -1.56, 7.83 0 M0 7.83 C1.14 3.24, 1.91 1.08, 7.83 0" stroke="#000000" stroke-width="1" fill="none"></path></g><g transform="translate(1090.7052441381443 362.46107918275754) rotate(0 367.5 31.5)"><text x="0" y="15" font-family="Virgil, Segoe UI Emoji" font-size="16px" fill="#000000" text-anchor="start" style="white-space: pre;" direction="ltr">The transaction function takes in a stuct named trx which has the propeties:</text><text x="0" y="36" font-family="Virgil, Segoe UI Emoji" font-size="16px" fill="#000000" text-anchor="start" style="white-space: pre;" direction="ltr"> of from, to amount, signature, message and previus trx id hashed using sha512.</text><text x="0" y="57" font-family="Virgil, Segoe UI Emoji" font-size="16px" fill="#000000" text-anchor="start" style="white-space: pre;" direction="ltr">which after data validation it triggers the Verify function with the msg, signature and from.</text></g><g stroke-linecap="round" transform="translate(1081.3633822369775 354.67079142031866) rotate(0 373.11670789938006 36.83708004488628)"><path d="M18.42 0 M18.42 0 C249.2 -2.23, 479.76 -1.68, 727.81 0 M18.42 0 C160.76 -0.99, 303.51 -1.35, 727.81 0 M727.81 0 C741.78 -1.99, 748.04 6.61, 746.23 18.42 M727.81 0 C741.76 0.59, 746.89 7.33, 746.23 18.42 M746.23 18.42 C747.74 27.97, 747.29 37.17, 746.23 55.26 M746.23 18.42 C745.38 29.21, 746.67 42.17, 746.23 55.26 M746.23 55.26 C747.82 66.48, 741.91 75.15, 727.81 73.67 M746.23 55.26 C744.97 67.84, 739.37 75.66, 727.81 73.67 M727.81 73.67 C547.8 75.26, 366.88 74.78, 18.42 73.67 M727.81 73.67 C521.77 72.13, 315.02 71.93, 18.42 73.67 M18.42 73.67 C5.09 73.48, 0.52 68.85, 0 55.26 M18.42 73.67 C4.84 75.02, -0.49 67.39, 0 55.26 M0 55.26 C0.8 41.1, 0.82 29.88, 0 18.42 M0 55.26 C-0.45 46.62, 0.37 35.8, 0 18.42 M0 18.42 C-1 5.59, 8.06 -0.6, 18.42 0 M0 18.42 C-1.18 7.75, 7.5 0.66, 18.42 0" stroke="#000000" stroke-width="1" fill="none"></path></g><g stroke-linecap="round"><g transform="translate(1098.29414336902 316.74124229714744) rotate(0 21.602649895261408 12.864802229952545)"><path d="M0.99 0.02 C8.06 4.64, 36.14 22.18, 43.16 26.75 M0.04 -1.02 C6.99 3.31, 35.61 20.31, 42.74 24.75" stroke="#000000" stroke-width="1" fill="none"></path></g><g transform="translate(1098.29414336902 316.74124229714744) rotate(0 21.602649895261408 12.864802229952545)"><path d="M18.34 21.55 C27.43 22.99, 37.38 21.84, 41.68 23.2 M18.63 19.01 C25.35 20.95, 30.39 23.11, 42.87 25.31" stroke="#000000" stroke-width="1" fill="none"></path></g><g transform="translate(1098.29414336902 316.74124229714744) rotate(0 21.602649895261408 12.864802229952545)"><path d="M27.17 6.99 C32.97 13.72, 39.75 17.8, 41.68 23.2 M27.46 4.45 C31.95 9.97, 34.79 15.75, 42.87 25.31" stroke="#000000" stroke-width="1" fill="none"></path></g></g><mask></mask><g stroke-linecap="round"><g transform="translate(1247.3213745755716 441.3887992345593) rotate(0 -7.561115179599113 34.26716893876292)"><path d="M-1.1 -1.15 C-3.88 10.54, -13.35 57.92, -15.64 69.68 M0.52 0.86 C-1.95 12.24, -10.63 56.17, -13.31 67.85" stroke="#000000" stroke-width="1" fill="none"></path></g><g transform="translate(1247.3213745755716 441.3887992345593) rotate(0 -7.561115179599113 34.26716893876292)"><path d="M-19.42 36.92 C-15.11 49.68, -13.92 59.16, -13.83 66.34 M-17.64 37.75 C-16.49 45.32, -16.12 54.59, -14.05 68.13" stroke="#000000" stroke-width="1" fill="none"></path></g><g transform="translate(1247.3213745755716 441.3887992345593) rotate(0 -7.561115179599113 34.26716893876292)"><path d="M0.66 41.18 C-2.71 52.12, -9.21 59.97, -13.83 66.34 M2.44 42.01 C-1.85 48.4, -6.91 56.52, -14.05 68.13" stroke="#000000" stroke-width="1" fill="none"></path></g></g><mask></mask><g stroke-linecap="round"><g transform="translate(2312.349736325726 509.24645084728445) rotate(0 -58.52414814819929 74.66739404524677)"><path d="M-0.53 -0.49 C-13.39 12.05, -56.57 50.36, -76.07 75.63 C-95.57 100.9, -110.65 138.59, -117.54 151.13 M1.39 -1.8 C-11.69 10.4, -56.85 48.93, -76.82 74.08 C-96.8 99.22, -111.7 136.05, -118.44 149.07" stroke="#000000" stroke-width="1" fill="none"></path></g><g transform="translate(2312.349736325726 509.24645084728445) rotate(0 -58.52414814819929 74.66739404524677)"><path d="M-116.4 119.82 C-114.8 130.45, -116.85 142.3, -117.94 148.41 M-115.9 118.81 C-116.36 127.36, -116.28 135.47, -118.37 148.1" stroke="#000000" stroke-width="1" fill="none"></path></g><g transform="translate(2312.349736325726 509.24645084728445) rotate(0 -58.52414814819929 74.66739404524677)"><path d="M-97.88 128.65 C-103.54 135.74, -112.83 144.14, -117.94 148.41 M-97.38 127.64 C-103.14 133.8, -108.33 139.4, -118.37 148.1" stroke="#000000" stroke-width="1" fill="none"></path></g></g><mask></mask><g transform="translate(1594.266153394967 15.323584042449966) rotate(0 331.144089249557 25.37965647533099)"><text x="0" y="35.759312950661986" font-family="Virgil, Segoe UI Emoji" font-size="38.67376224812345px" fill="#000000" text-anchor="start" style="white-space: pre;" direction="ltr">Nix Crypto Currency and blockchain</text></g><g stroke-linecap="round" transform="translate(1586.7554696502762 10) rotate(0 336.2802363424808 31.707208029287685)"><path d="M15.85 0 M15.85 0 C252.12 1.65, 487.8 0.76, 656.71 0 M15.85 0 C152.81 2.36, 289.53 2.16, 656.71 0 M656.71 0 C666.57 1.16, 673.68 7.13, 672.56 15.85 M656.71 0 C666.39 2.04, 673 5.06, 672.56 15.85 M672.56 15.85 C671.88 28.98, 672.48 39.32, 672.56 47.56 M672.56 15.85 C672.82 25.68, 671.72 36.41, 672.56 47.56 M672.56 47.56 C670.66 59.17, 665.97 64.38, 656.71 63.41 M672.56 47.56 C673.9 59.03, 665.36 62.68, 656.71 63.41 M656.71 63.41 C500.32 65.43, 345.28 64.52, 15.85 63.41 M656.71 63.41 C450.09 64.14, 242.32 64.03, 15.85 63.41 M15.85 63.41 C4.9 62.64, -0.38 56.73, 0 47.56 M15.85 63.41 C5.5 62.79, 0.79 57.25, 0 47.56 M0 47.56 C-1.93 38.55, 0.13 29.08, 0 15.85 M0 47.56 C0.35 39.12, 0.77 30.73, 0 15.85 M0 15.85 C0.2 4.94, 3.82 -0.21, 15.85 0 M0 15.85 C0.07 3.08, 6.55 -1.01, 15.85 0" stroke="#000000" stroke-width="1" fill="none"></path></g><g transform="translate(49.12518936842707 312.3752894685475) rotate(0 68.46020129166595 13.06967479204532)"><text x="0" y="18.13934958409063" font-family="Virgil, Segoe UI Emoji" font-size="19.91569492121191px" fill="#000000" text-anchor="start" style="white-space: pre;" direction="ltr">User workflow</text></g><g stroke-linecap="round" transform="translate(42.064185748553655 305.2350963498278) rotate(0 75.31737194531593 18.829342986328996)"><path d="M9.41 0 M9.41 0 C44.2 -0.9, 82.05 -1.04, 141.22 0 M9.41 0 C60.76 -0.22, 110.58 0.02, 141.22 0 M141.22 0 C146.92 0.1, 151.41 3.86, 150.63 9.41 M141.22 0 C148.04 -0.25, 152.47 2.69, 150.63 9.41 M150.63 9.41 C150.58 14.39, 152.06 17.6, 150.63 28.24 M150.63 9.41 C150.57 16.41, 150.25 25.2, 150.63 28.24 M150.63 28.24 C149.46 34.08, 146.23 38.78, 141.22 37.66 M150.63 28.24 C152.77 32.71, 148.05 38.48, 141.22 37.66 M141.22 37.66 C99.75 38.29, 60.43 38.72, 9.41 37.66 M141.22 37.66 C103.5 38.09, 65.36 36.64, 9.41 37.66 M9.41 37.66 C1.7 36.42, 1.6 33.39, 0 28.24 M9.41 37.66 C3.37 38.35, 0.35 32.93, 0 28.24 M0 28.24 C-1.83 20.54, 0.1 17.03, 0 9.41 M0 28.24 C0.33 23.22, -0.03 17.04, 0 9.41 M0 9.41 C0.81 3.43, 3.1 1.51, 9.41 0 M0 9.41 C1.51 4.22, 1.88 -0.83, 9.41 0" stroke="#000000" stroke-width="1" fill="none"></path></g><g transform="translate(52.018789147088114 410.1688703612157) rotate(0 62.23654662878721 13.06967479204532)"><text x="0" y="18.13934958409063" font-family="Virgil, Segoe UI Emoji" font-size="19.91569492121191px" fill="#000000" text-anchor="start" style="white-space: pre;" direction="ltr">Create User</text></g><g transform="translate(55.51182685667527 516.1024215933207) rotate(0 59.74708476363571 13.069674792045305)"><text x="0" y="18.13934958409063" font-family="Virgil, Segoe UI Emoji" font-size="19.91569492121191px" fill="#000000" text-anchor="start" style="white-space: pre;" direction="ltr">Transaction</text></g><g transform="translate(53.23441113409592 638.401729169279) rotate(0 59.74708476363571 13.069674792045305)"><text x="0" y="18.13934958409063" font-family="Virgil, Segoe UI Emoji" font-size="19.91569492121191px" fill="#000000" text-anchor="start" style="white-space: pre;" direction="ltr">Transaction</text></g><g stroke-linecap="round" transform="translate(41.4272837172781 405.38234511578685) rotate(0 71.78687013537933 18.829342986328996)"><path d="M9.41 0 M9.41 0 C54.25 -0.41, 96.03 1.26, 134.16 0 M9.41 0 C48.06 -1.58, 87.83 -0.23, 134.16 0 M134.16 0 C141.25 1.54, 142.58 2.01, 143.57 9.41 M134.16 0 C140.22 2.09, 141.58 4.02, 143.57 9.41 M143.57 9.41 C144.11 13.35, 141.92 19.03, 143.57 28.24 M143.57 9.41 C143.15 15.04, 144.06 20, 143.57 28.24 M143.57 28.24 C143.28 34.82, 140.26 36.68, 134.16 37.66 M143.57 28.24 C143.31 33.27, 141.26 39.54, 134.16 37.66 M134.16 37.66 C87.3 39.34, 40.04 36.81, 9.41 37.66 M134.16 37.66 C102.44 38.33, 71.86 38.79, 9.41 37.66 M9.41 37.66 C3 36.24, 1.15 34.77, 0 28.24 M9.41 37.66 C2.89 36.29, 1.88 36.4, 0 28.24 M0 28.24 C1.01 21.07, -0.47 17.15, 0 9.41 M0 28.24 C-0.14 22.74, -0.59 17.79, 0 9.41 M0 9.41 C0.1 4.29, 3.13 1.28, 9.41 0 M0 9.41 C1.42 2, 1.92 -0.16, 9.41 0" stroke="#000000" stroke-width="1" fill="none"></path></g><g transform="translate(292.09291222278307 414.8762061077979) rotate(0 130.0743824541653 13.06967479204532)"><text x="0" y="18.13934958409063" font-family="Virgil, Segoe UI Emoji" font-size="19.91569492121191px" fill="#000000" text-anchor="start" style="white-space: pre;" direction="ltr">Creates user in database</text></g><g stroke-linecap="round" transform="translate(281.50140679297294 412.44334873566015) rotate(0 142.39690633411286 17.064092081360656)"><path d="M8.53 0 M8.53 0 C109.45 -0.31, 211.11 -0.98, 276.26 0 M8.53 0 C70.65 -1.36, 132.96 -1.58, 276.26 0 M276.26 0 C282.17 -1.05, 284.08 1.58, 284.79 8.53 M276.26 0 C281.02 -1.4, 284.27 1.77, 284.79 8.53 M284.79 8.53 C283.52 14.49, 283.03 20.57, 284.79 25.6 M284.79 8.53 C285.42 13.58, 284.87 18.4, 284.79 25.6 M284.79 25.6 C286.18 32.99, 280.47 36.03, 276.26 34.13 M284.79 25.6 C282.68 29.19, 282.06 34.99, 276.26 34.13 M276.26 34.13 C221.16 33.62, 165.89 33.27, 8.53 34.13 M276.26 34.13 C207.03 32.51, 135.72 32.61, 8.53 34.13 M8.53 34.13 C4.62 35.5, 0.47 29.48, 0 25.6 M8.53 34.13 C3.19 35.77, 2.1 31.19, 0 25.6 M0 25.6 C-0.62 21.23, 1.12 16.77, 0 8.53 M0 25.6 C-0.33 21.67, -0.8 17.45, 0 8.53 M0 8.53 C-1.46 4.19, 0.86 0.44, 8.53 0 M0 8.53 C-1.8 4.63, 2.47 -1.59, 8.53 0" stroke="#000000" stroke-width="1" fill="none"></path></g><g stroke-linecap="round"><g transform="translate(194.41569548120117 431.02918237508777) rotate(0 38.65098738130547 -1.5863082184410615)"><path d="M-0.85 0.13 C12.2 -0.33, 64.95 -2.73, 78.15 -3.3 M0.91 -0.85 C13.85 -1.05, 64.61 -1.6, 77.46 -1.8" stroke="#000000" stroke-width="1" fill="none"></path></g><g transform="translate(194.41569548120117 431.02918237508777) rotate(0 38.65098738130547 -1.5863082184410615)"><path d="M49.61 9.62 C57.47 7.11, 65.61 0.89, 76.17 -0.5 M48.47 9.38 C56.28 5.81, 63.23 5.15, 76.57 -1.59" stroke="#000000" stroke-width="1" fill="none"></path></g><g transform="translate(194.41569548120117 431.02918237508777) rotate(0 38.65098738130547 -1.5863082184410615)"><path d="M49.35 -10.9 C57.19 -7.46, 65.4 -7.73, 76.17 -0.5 M48.21 -11.14 C55.92 -10.03, 62.92 -6.01, 76.57 -1.59" stroke="#000000" stroke-width="1" fill="none"></path></g></g><mask></mask><g stroke-linecap="round" transform="translate(45.97605636227263 633.6152039238503) rotate(0 63.81450238221629 18.82934298632898)"><path d="M9.41 0 M9.41 0 C48.29 -1.4, 85.96 0.92, 118.21 0 M9.41 0 C47.44 -0.38, 86.62 0.44, 118.21 0 M118.21 0 C126.18 -1.67, 127.08 1.3, 127.63 9.41 M118.21 0 C126.77 1.49, 126.23 4.72, 127.63 9.41 M127.63 9.41 C128.54 11.57, 128.76 15.51, 127.63 28.24 M127.63 9.41 C128.04 16.86, 128.13 24.63, 127.63 28.24 M127.63 28.24 C128.25 33.35, 123.5 37.29, 118.21 37.66 M127.63 28.24 C125.55 34.19, 123.73 35.93, 118.21 37.66 M118.21 37.66 C73.23 39.73, 31.97 39.05, 9.41 37.66 M118.21 37.66 C83.03 36.26, 46.24 36, 9.41 37.66 M9.41 37.66 C4.63 39.6, 1.36 33.94, 0 28.24 M9.41 37.66 C1.83 37.43, 1.56 33.08, 0 28.24 M0 28.24 C-0.08 23.5, 1.82 16.26, 0 9.41 M0 28.24 C-0.59 23.3, -0.71 16.93, 0 9.41 M0 9.41 C0.32 3.62, 1.34 -1.23, 9.41 0 M0 9.41 C1.78 3.27, 3.68 0.91, 9.41 0" stroke="#000000" stroke-width="1" fill="none"></path></g><g stroke-linecap="round" transform="translate(50.38061003366431 508.35498858477024) rotate(0 64.1735870683321 20.154714632736727)"><path d="M10.08 0 M10.08 0 C48.86 1.59, 85.11 -0.27, 118.27 0 M10.08 0 C48.24 0.68, 85.35 0.46, 118.27 0 M118.27 0 C124.9 -0.22, 129.77 5.12, 128.35 10.08 M118.27 0 C126.8 0.24, 128.23 1.92, 128.35 10.08 M128.35 10.08 C129.84 15.19, 130.02 18.04, 128.35 30.23 M128.35 10.08 C127.6 16.19, 127.93 22.34, 128.35 30.23 M128.35 30.23 C127.96 38.52, 126.04 38.49, 118.27 40.31 M128.35 30.23 C129.8 39.04, 125.69 39.92, 118.27 40.31 M118.27 40.31 C87.61 40.67, 61.15 40.15, 10.08 40.31 M118.27 40.31 C92.48 40.56, 67.09 41.25, 10.08 40.31 M10.08 40.31 C1.83 40.92, 0.98 38.45, 0 30.23 M10.08 40.31 C1.35 42.1, 0.04 36.94, 0 30.23 M0 30.23 C-1 24.65, 1.87 19.97, 0 10.08 M0 30.23 C0.7 21.61, -0.43 14.98, 0 10.08 M0 10.08 C-1.99 2.98, 1.45 -1.81, 10.08 0 M0 10.08 C1.13 3.93, 3.78 0.26, 10.08 0" stroke="#000000" stroke-width="1" fill="none"></path></g><g stroke-linecap="round"><g transform="translate(13.314163875625809 316.85984255699816) rotate(0 -1.4429603099307542 171.34628186078749)"><path d="M-1.16 0.72 C-1.8 57.74, -2.47 284.56, -2.77 341.61 M0.43 0.05 C-0.4 57.23, -2.67 285.84, -3.31 342.64" stroke="#000000" stroke-width="1" fill="none"></path></g><g transform="translate(13.314163875625809 316.85984255699816) rotate(0 -1.4429603099307542 171.34628186078749)"><path d="M-12.08 315.64 C-11.1 326.44, -4.91 338.5, -3.41 341.31 M-12.96 314.47 C-11.76 321.1, -8.7 327.06, -2.6 342.6" stroke="#000000" stroke-width="1" fill="none"></path></g><g transform="translate(13.314163875625809 316.85984255699816) rotate(0 -1.4429603099307542 171.34628186078749)"><path d="M8.44 315.86 C1.42 326.38, -0.39 338.35, -3.41 341.31 M7.56 314.69 C4.02 321.43, 2.34 327.34, -2.6 342.6" stroke="#000000" stroke-width="1" fill="none"></path></g></g><mask></mask><g transform="translate(285.76866922091256 513.418318999509) rotate(0 347.27993018863265 13.069674792045305)"><text x="0" y="18.13934958409063" font-family="Virgil, Segoe UI Emoji" font-size="19.91569492121191px" fill="#000000" text-anchor="start" style="white-space: pre;" direction="ltr">Purchase of the token like a stock or ipo as a currency like the USD</text></g><g stroke-linecap="round" transform="translate(279.5563515094566 509.4416916121354) rotate(0 354.98958351177413 17.749479175588732)"><path d="M8.87 0 M8.87 0 C198.15 1.05, 386.52 1.59, 701.1 0 M8.87 0 C254.61 -2.13, 500.75 -1.98, 701.1 0 M701.1 0 C708.26 -1.22, 709.65 3.13, 709.98 8.87 M701.1 0 C706.87 1.29, 709.3 0.66, 709.98 8.87 M709.98 8.87 C711.55 14.89, 709.57 19.85, 709.98 26.62 M709.98 8.87 C709.4 13.06, 710.5 18.17, 709.98 26.62 M709.98 26.62 C711.86 33.55, 705.06 33.89, 701.1 35.5 M709.98 26.62 C709.48 33.41, 708.28 36.1, 701.1 35.5 M701.1 35.5 C498.29 35.49, 295.11 35.24, 8.87 35.5 M701.1 35.5 C548.26 33.52, 395.31 34.01, 8.87 35.5 M8.87 35.5 C1.21 36.95, -1.3 33.27, 0 26.62 M8.87 35.5 C2.46 33.21, -1.23 30.63, 0 26.62 M0 26.62 C0.15 23.76, 0.68 17.76, 0 8.87 M0 26.62 C0.51 21.95, -0.26 18.67, 0 8.87 M0 8.87 C1.11 3.17, 1.1 -0.09, 8.87 0 M0 8.87 C-1.29 1.12, 4.44 -0.04, 8.87 0" stroke="#000000" stroke-width="1" fill="none"></path></g><g stroke-linecap="round"><g transform="translate(189.0340077139541 532.5160145404008) rotate(0 39.346905971121714 -2.342448632732925)"><path d="M-0.06 -0.67 C12.93 -1.25, 64.86 -3.64, 78.03 -4.55 M-1.54 1.59 C11.8 0.77, 66.95 -5.13, 80.24 -6.27" stroke="#000000" stroke-width="1" fill="none"></path></g><g transform="translate(189.0340077139541 532.5160145404008) rotate(0 39.346905971121714 -2.342448632732925)"><path d="M52.05 5.08 C62.98 2.64, 68.7 -1.47, 79.49 -6.75 M52.37 6.65 C61.59 1.91, 71.48 -3.04, 79.46 -6.83" stroke="#000000" stroke-width="1" fill="none"></path></g><g transform="translate(189.0340077139541 532.5160145404008) rotate(0 39.346905971121714 -2.342448632732925)"><path d="M50.06 -15.34 C61.42 -11.45, 67.76 -9.21, 79.49 -6.75 M50.38 -13.77 C60.21 -11.6, 70.79 -9.62, 79.46 -6.83" stroke="#000000" stroke-width="1" fill="none"></path></g></g><mask></mask><g transform="translate(285.76866922091256 626.1275117644972) rotate(0 336.69971726173884 26.13934958409064)"><text x="0" y="18.13934958409063" font-family="Virgil, Segoe UI Emoji" font-size="19.91569492121191px" fill="#000000" text-anchor="start" style="white-space: pre;" direction="ltr">Use of the currency for payements of general use with support pool</text><text x="0" y="44.27869916818126" font-family="Virgil, Segoe UI Emoji" font-size="19.91569492121191px" fill="#000000" text-anchor="start" style="white-space: pre;" direction="ltr">to validate wealth</text></g><g stroke-linecap="round" transform="translate(277.78140359189763 624.8133062534617) rotate(0 347.4460548621491 27.955429701552276)"><path d="M13.98 0 M13.98 0 C194.37 1.72, 375.55 1.32, 680.91 0 M13.98 0 C235.03 -1.03, 455.26 -1.34, 680.91 0 M680.91 0 C688.34 -1.81, 692.96 2.93, 694.89 13.98 M680.91 0 C688.78 0.07, 693.09 2.47, 694.89 13.98 M694.89 13.98 C694.58 22.38, 696.67 28.33, 694.89 41.93 M694.89 13.98 C694.64 23.75, 695.9 34.28, 694.89 41.93 M694.89 41.93 C695.75 49.76, 690.73 55.45, 680.91 55.91 M694.89 41.93 C695.22 52.21, 691.54 56.41, 680.91 55.91 M680.91 55.91 C438.64 53.76, 194.83 52.81, 13.98 55.91 M680.91 55.91 C482.78 58.02, 283.6 58.04, 13.98 55.91 M13.98 55.91 C5.75 57.46, 1 52.31, 0 41.93 M13.98 55.91 C3.64 54.53, -0.71 49.98, 0 41.93 M0 41.93 C-0.22 35.28, 1.48 29.02, 0 13.98 M0 41.93 C0.93 35.33, 0.08 26.21, 0 13.98 M0 13.98 C1.16 3.7, 5.38 -0.88, 13.98 0 M0 13.98 C2.27 5.82, 2.71 -0.63, 13.98 0" stroke="#000000" stroke-width="1" fill="none"></path></g><g stroke-linecap="round"><g transform="translate(183.70916396127734 654.9874208519628) rotate(0 41.91864243267065 0.12984001529463285)"><path d="M-0.49 0.94 C13.37 1.18, 70.34 1.23, 84.33 1.11 M1.46 0.4 C15.13 0.27, 70.32 -1.04, 83.85 -0.9" stroke="#000000" stroke-width="1" fill="none"></path></g><g transform="translate(183.70916396127734 654.9874208519628) rotate(0 41.91864243267065 0.12984001529463285)"><path d="M57.33 11.13 C67.38 5.5, 77.15 1.82, 85.4 -1.93 M55.52 9.65 C63.51 5.79, 71.62 3.75, 83.91 -0.23" stroke="#000000" stroke-width="1" fill="none"></path></g><g transform="translate(183.70916396127734 654.9874208519628) rotate(0 41.91864243267065 0.12984001529463285)"><path d="M57.14 -9.39 C67.21 -6.82, 77.06 -2.3, 85.4 -1.93 M55.32 -10.87 C63.2 -8.68, 71.37 -4.67, 83.91 -0.23" stroke="#000000" stroke-width="1" fill="none"></path></g></g><mask></mask><g transform="translate(3015.2588912240603 289.71827384939684) rotate(0 21.5 10.5)"><text x="0" y="15" font-family="Virgil, Segoe UI Emoji" font-size="16px" fill="#000000" text-anchor="start" style="white-space: pre;" direction="ltr">Block</text></g><g transform="translate(2986.2272662454043 409.10546648900106) rotate(0 311 21)"><text x="0" y="15" font-family="Virgil, Segoe UI Emoji" font-size="16px" fill="#000000" text-anchor="start" style="white-space: pre;" direction="ltr">The block function adds the current trx to the index local database</text><text x="0" y="36" font-family="Virgil, Segoe UI Emoji" font-size="16px" fill="#000000" text-anchor="start" style="white-space: pre;" direction="ltr"> which is public but hashed meaning its verifiable but not public and traceable.</text></g><g stroke-linecap="round" transform="translate(2975.1476517259157 404.51861428592235) rotate(0 321.30882106517447 27.69903629872198)"><path d="M13.85 0 M13.85 0 C182.75 0.21, 352.6 -0.22, 628.77 0 M13.85 0 C205.06 -1.37, 396.63 -1.58, 628.77 0 M628.77 0 C637.77 -1.13, 641.43 6.47, 642.62 13.85 M628.77 0 C636.76 0.89, 641.17 3.31, 642.62 13.85 M642.62 13.85 C644.44 19.24, 643.46 26.27, 642.62 41.55 M642.62 13.85 C642.48 20.96, 642.54 28.3, 642.62 41.55 M642.62 41.55 C642.65 49.92, 639.96 54.79, 628.77 55.4 M642.62 41.55 C644.72 50.44, 636.72 56.32, 628.77 55.4 M628.77 55.4 C455.19 55.64, 280.67 54.61, 13.85 55.4 M628.77 55.4 C479.68 56.21, 330.14 56.64, 13.85 55.4 M13.85 55.4 C2.71 57.04, 1.31 50.67, 0 41.55 M13.85 55.4 C4.58 55.08, -1.93 53.03, 0 41.55 M0 41.55 C0 33.37, 0.09 25.34, 0 13.85 M0 41.55 C-0.22 34.95, -0.21 27.05, 0 13.85 M0 13.85 C-1.75 3.8, 6.56 -1.3, 13.85 0 M0 13.85 C-2.29 5.71, 2.48 -0.73, 13.85 0" stroke="#000000" stroke-width="1" fill="none"></path></g><g stroke-linecap="round" transform="translate(3007.200989755341 279.0879955447788) rotate(0 27.69903629872192 17.626659462823056)"><path d="M8.81 0 M8.81 0 C18.96 -1.19, 27.25 -0.1, 46.58 0 M8.81 0 C17.41 -0.18, 25.16 0.11, 46.58 0 M46.58 0 C53.55 1.88, 54.29 1.81, 55.4 8.81 M46.58 0 C52.87 -1.33, 55.39 3.99, 55.4 8.81 M55.4 8.81 C56.91 13.14, 55.25 16.01, 55.4 26.44 M55.4 8.81 C55.11 13.81, 54.76 17.77, 55.4 26.44 M55.4 26.44 C55.8 32.5, 52.89 34.58, 46.58 35.25 M55.4 26.44 C54.2 33.3, 53.12 35.13, 46.58 35.25 M46.58 35.25 C33.44 36.04, 19.19 37.25, 8.81 35.25 M46.58 35.25 C37.15 35.14, 27.42 36.2, 8.81 35.25 M8.81 35.25 C4.17 35.35, 1.88 32.18, 0 26.44 M8.81 35.25 C4.06 33.35, 1.88 33.74, 0 26.44 M0 26.44 C-0.06 23.36, -0.81 19.4, 0 8.81 M0 26.44 C-0.67 20.44, -0.04 13.84, 0 8.81 M0 8.81 C-0.79 1.25, 4.09 -1.75, 8.81 0 M0 8.81 C1.63 3.32, 3.02 1.61, 8.81 0" stroke="#000000" stroke-width="1" fill="none"></path></g><g stroke-linecap="round"><g transform="translate(3039.011076580612 321.4935674611795) rotate(0 -0.2307673187367527 35.98596429833034)"><path d="M-0.58 -0.3 C-0.62 11.51, -0.74 59.9, -0.54 72.06 M1.31 -1.5 C1.1 11, -1.58 61.47, -1.77 73.47" stroke="#000000" stroke-width="1" fill="none"></path></g><g transform="translate(3039.011076580612 321.4935674611795) rotate(0 -0.2307673187367527 35.98596429833034)"><path d="M-11.48 44.02 C-8.57 53.79, -5.03 59.9, -0.89 72.24 M-10.83 45.51 C-8.14 52.45, -6.43 58.69, -1.85 74.34" stroke="#000000" stroke-width="1" fill="none"></path></g><g transform="translate(3039.011076580612 321.4935674611795) rotate(0 -0.2307673187367527 35.98596429833034)"><path d="M9.03 44.78 C6.32 54.25, 4.24 60.14, -0.89 72.24 M9.68 46.27 C7.59 52.84, 4.52 58.9, -1.85 74.34" stroke="#000000" stroke-width="1" fill="none"></path></g></g><mask></mask><g transform="translate(2901.571769777343 561.9420311925719) rotate(0 40.5 10.5)"><text x="0" y="15" font-family="Virgil, Segoe UI Emoji" font-size="16px" fill="#000000" text-anchor="start" style="white-space: pre;" direction="ltr">Database</text></g><g transform="translate(3038.21533568385 648.0048296088246) rotate(0 259 147.00000000000003)"><text x="0" y="15" font-family="Virgil, Segoe UI Emoji" font-size="16px" fill="#000000" text-anchor="start" style="white-space: pre;" direction="ltr">The database is locally hosted and distributed via an API.</text><text x="0" y="36" font-family="Virgil, Segoe UI Emoji" font-size="16px" fill="#000000" text-anchor="start" style="white-space: pre;" direction="ltr">While the data in the database in private the code is public and</text><text x="0" y="57" font-family="Virgil, Segoe UI Emoji" font-size="16px" fill="#000000" text-anchor="start" style="white-space: pre;" direction="ltr">so verifiable to check if the code is safe and private.</text><text x="0" y="78" font-family="Virgil, Segoe UI Emoji" font-size="16px" fill="#000000" text-anchor="start" style="white-space: pre;" direction="ltr"></text><text x="0" y="99" font-family="Virgil, Segoe UI Emoji" font-size="16px" fill="#000000" text-anchor="start" style="white-space: pre;" direction="ltr">Database model:</text><text x="0" y="120" font-family="Virgil, Segoe UI Emoji" font-size="16px" fill="#000000" text-anchor="start" style="white-space: pre;" direction="ltr"></text><text x="0" y="141" font-family="Virgil, Segoe UI Emoji" font-size="16px" fill="#000000" text-anchor="start" style="white-space: pre;" direction="ltr">Block:</text><text x="0" y="162" font-family="Virgil, Segoe UI Emoji" font-size="16px" fill="#000000" text-anchor="start" style="white-space: pre;" direction="ltr">    block 0:</text><text x="0" y="183" font-family="Virgil, Segoe UI Emoji" font-size="16px" fill="#000000" text-anchor="start" style="white-space: pre;" direction="ltr">        trx: "from-to-amount"</text><text x="0" y="204" font-family="Virgil, Segoe UI Emoji" font-size="16px" fill="#000000" text-anchor="start" style="white-space: pre;" direction="ltr">        sig: an elliptic curve based signature.</text><text x="0" y="225" font-family="Virgil, Segoe UI Emoji" font-size="16px" fill="#000000" text-anchor="start" style="white-space: pre;" direction="ltr">        prevBlockHash: the previous block's id hashed</text><text x="0" y="246" font-family="Virgil, Segoe UI Emoji" font-size="16px" fill="#000000" text-anchor="start" style="white-space: pre;" direction="ltr">User:</text><text x="0" y="267" font-family="Virgil, Segoe UI Emoji" font-size="16px" fill="#000000" text-anchor="start" style="white-space: pre;" direction="ltr">    Publickey:</text><text x="0" y="288" font-family="Virgil, Segoe UI Emoji" font-size="16px" fill="#000000" text-anchor="start" style="white-space: pre;" direction="ltr">        bal: a float with the users balance</text></g><g stroke-linecap="round" transform="translate(3026.1363464324454 639.6511562163571) rotate(0 278.19422119639603 155.89445502593145)"><path d="M32 0 M32 0 C134.89 0.75, 237.27 2.09, 524.39 0 M32 0 C179.13 1.37, 327.01 1.63, 524.39 0 M524.39 0 C544.95 -1.7, 558.25 9.05, 556.39 32 M524.39 0 C544.93 1.74, 556.68 12.27, 556.39 32 M556.39 32 C557.05 85.58, 558.99 140.24, 556.39 279.79 M556.39 32 C555.78 120.77, 556.02 211.07, 556.39 279.79 M556.39 279.79 C556.74 300.2, 545.54 311.22, 524.39 311.79 M556.39 279.79 C554.48 302.39, 543.6 309.83, 524.39 311.79 M524.39 311.79 C380.97 312.21, 235.9 311.79, 32 311.79 M524.39 311.79 C364.95 312.78, 206.34 313.3, 32 311.79 M32 311.79 C12.39 312.42, 0.22 299.82, 0 279.79 M32 311.79 C12.51 310.37, -2.12 298.96, 0 279.79 M0 279.79 C-0.61 207.94, -0.04 136.08, 0 32 M0 279.79 C-0.29 192.05, -0.55 105.96, 0 32 M0 32 C-1.78 9.35, 10.39 1.44, 32 0 M0 32 C-1.87 10.1, 9.41 2.06, 32 0" stroke="#000000" stroke-width="1" fill="none"></path></g><g stroke-linecap="round" transform="translate(2895.532275151641 558.8729155975935) rotate(0 46.05114652097723 13.588862907829366)"><path d="M6.79 0 M6.79 0 C33.34 1, 57.97 -0.7, 85.31 0 M6.79 0 C36.25 0.75, 65.51 0.53, 85.31 0 M85.31 0 C88.42 -0.47, 90.62 2, 92.1 6.79 M85.31 0 C91.84 -1.72, 89.99 3.33, 92.1 6.79 M92.1 6.79 C91.29 11.52, 92.99 14.07, 92.1 20.38 M92.1 6.79 C92.5 12.5, 91.6 16.6, 92.1 20.38 M92.1 20.38 C90.21 24.6, 89.18 29.04, 85.31 27.18 M92.1 20.38 C90.76 26.07, 90.22 25.4, 85.31 27.18 M85.31 27.18 C66.97 29.54, 50.75 26.75, 6.79 27.18 M85.31 27.18 C68.22 26.63, 52.56 26.35, 6.79 27.18 M6.79 27.18 C1.29 28.54, -0.34 23.58, 0 20.38 M6.79 27.18 C2.14 26.03, 1.98 23.22, 0 20.38 M0 20.38 C0.36 14.03, -0.64 10.89, 0 6.79 M0 20.38 C-0.54 15.03, -0.18 10.42, 0 6.79 M0 6.79 C-1.48 4.12, 2.96 -1.28, 6.79 0 M0 6.79 C1.12 0.6, 0.04 1.04, 6.79 0" stroke="#000000" stroke-width="1" fill="none"></path></g><g stroke-linecap="round"><g transform="translate(2934.972805300293 595.864820180018) rotate(0 45.14288990482055 35.61467793567823)"><path d="M1.06 -0.61 C5.39 8.73, 11.45 45.2, 25.91 57.12 C40.37 69.05, 77.28 68.45, 87.81 70.91 M0.15 1.68 C4.85 11.72, 13.06 46.84, 28.06 58.53 C43.05 70.22, 79.9 69.41, 90.13 71.84" stroke="#000000" stroke-width="1" fill="none"></path></g><g transform="translate(2934.972805300293 595.864820180018) rotate(0 45.14288990482055 35.61467793567823)"><path d="M59.93 77.01 C68.96 74.71, 76.64 74.82, 90.55 71.61 M60.29 78.75 C67.74 77.97, 74.84 76.13, 89.8 70.87" stroke="#000000" stroke-width="1" fill="none"></path></g><g transform="translate(2934.972805300293 595.864820180018) rotate(0 45.14288990482055 35.61467793567823)"><path d="M62.28 56.62 C70.81 60.28, 77.8 66.31, 90.55 71.61 M62.64 58.37 C69.64 62.7, 76.15 65.98, 89.8 70.87" stroke="#000000" stroke-width="1" fill="none"></path></g></g><mask></mask><g transform="translate(1759.328489497388 1062.0366819639285) rotate(0 189.54700575030597 24.84091813251871)"><text x="0" y="34.68183626503745" font-family="Virgil, Segoe UI Emoji" font-size="38.88143707698583px" fill="#000000" text-anchor="start" style="white-space: pre;" direction="ltr">Nix Token Exchange</text></g><g stroke-linecap="round" transform="translate(1750.0710044790585 1049.6933686061552) rotate(0 199.80738497895493 35.48702590359824)"><path d="M17.74 0 M17.74 0 C97.81 -1.75, 178 -2.82, 381.87 0 M17.74 0 C147.63 0.83, 278.96 1.9, 381.87 0 M381.87 0 C395.38 1.51, 400.36 7.61, 399.61 17.74 M381.87 0 C394.32 1.05, 398.6 7.54, 399.61 17.74 M399.61 17.74 C397.69 25.1, 398.19 36.88, 399.61 53.23 M399.61 17.74 C399.24 30, 398.95 42.39, 399.61 53.23 M399.61 53.23 C400.77 65, 391.92 72.14, 381.87 70.97 M399.61 53.23 C401.27 64.06, 393.31 69.16, 381.87 70.97 M381.87 70.97 C243.84 71, 105.65 70.48, 17.74 70.97 M381.87 70.97 C250.8 70.26, 120.05 70.58, 17.74 70.97 M17.74 70.97 C6.13 70.99, -1.89 64.33, 0 53.23 M17.74 70.97 C3.94 72.51, -1.4 67, 0 53.23 M0 53.23 C0.69 42.77, 0.99 37.28, 0 17.74 M0 53.23 C0.26 44.32, 0.29 35.08, 0 17.74 M0 17.74 C-0.63 7.1, 4.34 0.35, 17.74 0 M0 17.74 C-0.75 6.99, 8.04 -0.15, 17.74 0" stroke="#000000" stroke-width="1" fill="none"></path></g><g transform="translate(1589.6079308280055 1227.977100917493) rotate(0 393.6745504044816 11.340419147454213)"><text x="0" y="15.680838294908401" font-family="Virgil, Segoe UI Emoji" font-size="17.28063870088259px" fill="#000000" text-anchor="start" style="white-space: pre;" direction="ltr">The exchange will be made using NextJS and will be using tailwind css for the Style sheets.</text></g><g stroke-linecap="round" transform="translate(1582.5459645593337 1222.2317953803265) rotate(0 403.0420281997242 18.203795359094613)"><path d="M9.1 0 M9.1 0 C231.2 0.87, 453.51 1.06, 796.98 0 M9.1 0 C212.69 1.79, 417.27 1.54, 796.98 0 M796.98 0 C801.42 -0.18, 805.62 2.1, 806.08 9.1 M796.98 0 C805.25 -1.1, 804.91 0.97, 806.08 9.1 M806.08 9.1 C807.84 12, 806.63 19.73, 806.08 27.31 M806.08 9.1 C806.08 13.11, 805.86 18.16, 806.08 27.31 M806.08 27.31 C806.27 33.94, 801.8 36.71, 796.98 36.41 M806.08 27.31 C804.76 31.23, 803.26 34.54, 796.98 36.41 M796.98 36.41 C614.73 37.25, 431.57 37.32, 9.1 36.41 M796.98 36.41 C543.57 34.78, 289.41 34.72, 9.1 36.41 M9.1 36.41 C4.28 37.35, -1.08 33.52, 0 27.31 M9.1 36.41 C4.13 36.78, 1.94 31.38, 0 27.31 M0 27.31 C-0.63 24.37, 0.22 19.96, 0 9.1 M0 27.31 C-0.27 24.02, -0.41 19.45, 0 9.1 M0 9.1 C1.44 4.37, 4.4 -1.11, 9.1 0 M0 9.1 C2.02 3.1, 0.81 -1.58, 9.1 0" stroke="#000000" stroke-width="1" fill="none"></path></g><g stroke-linecap="round"><g transform="translate(2054.8875473475714 1131.854016036517) rotate(0 25.382101324545715 40.33847339203572)"><path d="M0.32 0.29 C1.38 7.68, -1.67 30.68, 6.9 44.18 C15.47 57.68, 44.39 75.15, 51.74 81.28 M-0.98 -0.6 C0.44 6.98, 0.56 32.19, 9.26 45.54 C17.97 58.9, 44.28 73.99, 51.26 79.54" stroke="#000000" stroke-width="1" fill="none"></path></g><g transform="translate(2054.8875473475714 1131.854016036517) rotate(0 25.382101324545715 40.33847339203572)"><path d="M24.51 71.3 C32.82 75.7, 44.65 76.91, 52.68 79.86 M24.91 73.26 C30.76 74.56, 36.47 75.7, 51.5 79.2" stroke="#000000" stroke-width="1" fill="none"></path></g><g transform="translate(2054.8875473475714 1131.854016036517) rotate(0 25.382101324545715 40.33847339203572)"><path d="M35.47 55.46 C39.99 65.33, 48.06 71.99, 52.68 79.86 M35.87 57.42 C39.33 62.34, 42.48 67.17, 51.5 79.2" stroke="#000000" stroke-width="1" fill="none"></path></g></g><mask></mask></svg>